<svg width="242" height="279" viewBox="0 0 242 279" fill="none" xmlns="http://www.w3.org/2000/svg">
<path d="M147.686 0.094696C149.823 0.0908016 151.96 0.0864654 154.097 0.0817108C158.553 0.0742897 163.008 0.0745117 167.464 0.0798035C173.161 0.0856197 178.857 0.0685953 184.554 0.0454588C188.958 0.0307083 193.361 0.0298511 197.765 0.0329685C199.866 0.0324569 201.966 0.0272485 204.067 0.0171566C207.003 0.0047718 209.938 0.0115942 212.873 0.0231628C213.731 0.0155191 214.589 0.00787536 215.473 0C222.498 0.0609587 227.767 1.62228 233.729 5.52048C240.379 12.4721 241.081 20.0484 241.011 29.333C241.014 30.4531 241.018 31.5732 241.022 32.7273C241.025 35.0838 241.018 37.4404 241.001 39.7968C240.979 43.3851 241.001 46.9713 241.026 50.5595C241.024 52.859 241.019 55.1585 241.011 57.458C241.019 58.5207 241.027 59.5835 241.035 60.6784C240.943 68.0436 239.936 74.7412 234.7 80.2766C229.165 85.2828 224.78 86.924 217.3 86.7744C211.497 85.9949 207.454 82.6996 203.604 78.458C199.994 73.2542 199.229 68.7317 199.284 62.4658C199.294 60.5322 199.294 60.5322 199.304 58.5595C199.32 57.2132 199.337 55.8668 199.354 54.5205C199.364 53.1507 199.374 51.7809 199.382 50.4111C199.405 47.0724 199.438 43.734 199.479 40.3955C189.977 40.4338 180.474 40.4935 170.972 40.5794C166.558 40.6186 162.144 40.6509 157.73 40.6665C153.457 40.6818 149.184 40.7165 144.911 40.7638C143.294 40.7784 141.678 40.7865 140.061 40.7874C112.534 40.8164 88.1555 51.2968 68.3271 70.4775C50.887 89.0917 40.5686 114.567 41.0238 140.072C42.0124 164.442 49.8707 187.27 66.4794 205.395C67.7111 206.766 67.7111 206.766 68.9677 208.165C84.5685 224.69 107.157 236.549 130.093 237.554C131.374 237.569 132.655 237.585 133.975 237.601C134.688 237.611 135.401 237.621 136.136 237.631C138.468 237.662 140.8 237.687 143.132 237.712C144.758 237.732 146.385 237.753 148.012 237.775C152.274 237.83 156.537 237.879 160.8 237.928C165.157 237.978 169.515 238.034 173.872 238.089C182.408 238.196 190.944 238.298 199.479 238.395C199.458 237.529 199.438 236.662 199.416 235.769C199.347 232.518 199.297 229.268 199.26 226.018C199.24 224.617 199.213 223.217 199.178 221.816C198.957 212.7 198.945 205.547 205.261 198.372C205.828 197.926 206.395 197.48 206.979 197.02C207.547 196.559 208.114 196.098 208.698 195.622C214.124 191.886 218.99 191.427 225.479 192.395C230.738 194.456 235.124 197.15 238.042 202.083C239.796 206.124 240.61 209.077 240.672 213.443C240.688 214.471 240.704 215.5 240.721 216.56C240.766 221.279 240.806 225.997 240.829 230.717C240.846 233.198 240.873 235.68 240.912 238.162C240.967 241.752 240.988 245.34 241.003 248.931C241.026 250.029 241.048 251.127 241.072 252.259C241.049 260.734 239.133 267.645 233.104 273.833C226.45 277.794 221.517 278.837 213.867 278.784C212.458 278.792 212.458 278.792 211.02 278.8C207.926 278.813 204.832 278.804 201.737 278.794C199.568 278.796 197.399 278.799 195.231 278.803C190.683 278.807 186.135 278.801 181.588 278.787C175.804 278.77 170.021 278.779 164.237 278.797C159.753 278.808 155.27 278.805 150.786 278.797C148.656 278.795 146.527 278.797 144.397 278.804C131.751 278.837 119.841 278.137 107.479 275.395C106.626 275.209 105.773 275.022 104.893 274.83C81.3837 269.246 61.2446 256.369 43.4794 240.395C42.501 239.525 42.501 239.525 41.5028 238.638C15.2153 213.845 1.12509 177.386 0.0069857 141.738C-0.373958 102.487 14.8402 67.4065 41.9794 39.458C61.0045 20.4407 86.1518 7.52111 112.479 2.39548C113.806 2.12372 113.806 2.12372 115.159 1.84648C125.956 -0.102581 136.749 0.0863532 147.686 0.094696Z" fill="black"/>
<path d="M162.48 102.395C168.952 107.259 175.02 112.967 178.605 120.333C178.917 120.961 179.229 121.589 179.55 122.235C183.919 132.387 184.468 144.65 180.355 155.02C175.017 165.86 166.967 174.997 155.48 179.395C145.185 182.844 132.959 183.069 122.898 178.716C111.759 172.634 103.209 163.597 99.4796 151.395C99.2875 150.808 99.0955 150.22 98.8976 149.614C96.5783 137.303 98.2837 125.546 105.245 115.165C105.856 114.289 105.856 114.289 106.48 113.395C107.036 112.55 107.593 111.704 108.167 110.833C122.16 96.0837 144.623 91.8902 162.48 102.395Z" fill="black"/>
</svg>
