<svg width="500" height="500" viewBox="0 0 500 500" fill="none" xmlns="http://www.w3.org/2000/svg">
<g clip-path="url(#clip0_84_157)">
<mask id="mask0_84_157" style="mask-type:alpha" maskUnits="userSpaceOnUse" x="0" y="0" width="500" height="500">
<path fill-rule="evenodd" clip-rule="evenodd" d="M500 155.72C500 149.785 500 143.848 499.966 137.912C499.936 132.911 499.879 127.912 499.743 122.914C499.449 112.02 498.806 101.033 496.869 90.2609C494.904 79.3325 491.695 69.1626 486.639 59.2336C481.668 49.4745 475.175 40.5443 467.427 32.8022C459.682 25.0601 450.749 18.571 440.987 13.6031C431.047 8.54549 420.866 5.33798 409.926 3.37378C399.152 1.43932 388.162 0.79791 377.268 0.503614C372.266 0.368299 367.265 0.311271 362.262 0.280325C356.323 0.243917 350.384 0.246955 344.444 0.246955L275.484 0H223.907L156.166 0.246955C150.215 0.246955 144.264 0.243917 138.313 0.280325C133.3 0.311271 128.289 0.368299 123.278 0.503614C112.359 0.79791 101.343 1.43993 90.5443 3.37682C79.5898 5.34041 69.3932 8.54672 59.4405 13.6007C49.6572 18.5692 40.7057 25.0588 32.9436 32.8022C25.182 40.5437 18.6772 49.4721 13.6972 59.2288C8.62682 69.1632 5.412 79.3398 3.44234 90.2737C1.50302 101.042 0.860455 112.025 0.564946 122.914C0.430237 127.913 0.371959 132.912 0.341619 137.912C0.305211 143.849 0 151.223 0 157.16V276.091L0.30825 344.313C0.30825 350.257 0.305818 356.201 0.341619 362.145C0.371959 367.152 0.430223 372.158 0.565538 377.164C0.860441 388.072 1.50423 399.075 3.44538 409.862C5.41443 420.803 8.62862 430.989 13.6948 440.93C18.6753 450.703 25.182 459.645 32.9436 467.398C40.7051 475.151 49.6547 481.649 59.4357 486.624C69.3944 491.688 79.5959 494.9 90.557 496.867C101.351 498.804 112.363 499.447 123.278 499.741C128.289 499.876 133.3 499.934 138.314 499.964C144.265 500 150.215 500 156.166 500H344.444C350.384 500 356.323 500 362.262 499.964C367.265 499.934 372.266 499.876 377.268 499.741C388.166 499.446 399.16 498.803 409.939 496.864C420.872 494.897 431.048 491.687 440.982 486.626C450.746 481.651 459.681 475.152 467.427 467.398C475.174 459.646 481.666 450.706 486.638 440.934C491.697 430.988 494.905 420.799 496.871 409.849C498.807 399.066 499.449 388.067 499.743 377.164C499.879 372.158 499.936 367.152 499.966 362.145C500 356.201 500 350.257 500 344.313V155.72Z" fill="white"/>
</mask>
<g mask="url(#mask0_84_157)">
<rect x="-0.488281" y="-0.488281" width="500.977" height="500.977" fill="url(#paint0_linear_84_157)"/>
<g filter="url(#filter0_d_84_157)">
<path d="M182.502 309.499H152.752V339.249H182.502V368.999H301.502V339.249H331.252V309.499H301.502V339.249H182.502V309.499Z" fill="black"/>
<path d="M271.751 131H242.001V250H212.25V279.75H271.751V131Z" fill="black"/>
<rect x="361.002" y="131" width="29.7501" height="59.5001" fill="black"/>
<rect x="123" y="131" width="29.7501" height="59.5001" fill="black"/>
</g>
<path d="M-0.488281 -0.488281H500.488V500.488H-0.488281V-0.488281Z" fill="url(#paint1_linear_84_157)"/>
</g>
</g>
<defs>
<filter id="filter0_d_84_157" x="123" y="131" width="268.822" height="239.069" filterUnits="userSpaceOnUse" color-interpolation-filters="sRGB">
<feFlood flood-opacity="0" result="BackgroundImageFix"/>
<feColorMatrix in="SourceAlpha" type="matrix" values="0 0 0 0 0 0 0 0 0 0 0 0 0 0 0 0 0 0 127 0" result="hardAlpha"/>
<feOffset dx="0.534855" dy="0.534855"/>
<feGaussianBlur stdDeviation="0.267428"/>
<feComposite in2="hardAlpha" operator="out"/>
<feColorMatrix type="matrix" values="0 0 0 0 0.0401611 0 0 0 0 0.0401611 0 0 0 0 0.0401611 0 0 0 0.21 0"/>
<feBlend mode="normal" in2="BackgroundImageFix" result="effect1_dropShadow_84_157"/>
<feBlend mode="normal" in="SourceGraphic" in2="effect1_dropShadow_84_157" result="shape"/>
</filter>
<linearGradient id="paint0_linear_84_157" x1="260.614" y1="-49.2403" x2="223.042" y2="548.212" gradientUnits="userSpaceOnUse">
<stop stop-color="#C6ECFF"/>
<stop offset="1" stop-color="#3F9CFF"/>
</linearGradient>
<linearGradient id="paint1_linear_84_157" x1="264.5" y1="-3.25813e-08" x2="264" y2="500" gradientUnits="userSpaceOnUse">
<stop stop-color="white" stop-opacity="0.5"/>
<stop offset="0.5" stop-color="white" stop-opacity="0.1"/>
<stop offset="0.5" stop-color="white" stop-opacity="0"/>
<stop offset="1" stop-opacity="0.03"/>
</linearGradient>
<clipPath id="clip0_84_157">
<rect width="500" height="500" fill="white"/>
</clipPath>
</defs>
</svg>
