<svg width="1200" height="1200" viewBox="0 0 1200 1200" fill="none" xmlns="http://www.w3.org/2000/svg">
<g clip-path="url(#clip0_5_8039)">
<path d="M552 128H536V144H552V128Z" fill="#858485"/>
<path d="M568 128H552V144H568V128Z" fill="#464646"/>
<path d="M552 144H536V160H552V144Z" fill="#868586"/>
<path d="M568 144H552V160H568V144Z" fill="#3F3E3E"/>
<path d="M584 144H568V160H584V144Z" fill="#3B3B3B"/>
<path d="M552 160H536V176H552V160Z" fill="#828080"/>
<path d="M568 160H552V176H568V160Z" fill="#878787"/>
<path d="M584 160H568V176H584V160Z" fill="#393938"/>
<path d="M728 160H712V176H728V160Z" fill="#807F7F"/>
<path d="M552 176H536V192H552V176Z" fill="#888786"/>
<path d="M568 176H552V192H568V176Z" fill="#838282"/>
<path d="M584 176H568V192H584V176Z" fill="#3B3C3B"/>
<path d="M600 176H584V192H600V176Z" fill="#898788"/>
<path d="M712 176H696V192H712V176Z" fill="#272727"/>
<path d="M552 192H536V208H552V192Z" fill="#8A898A"/>
<path d="M568 192H552V208H568V192Z" fill="#CAC9CA"/>
<path d="M584 192H568V208H584V192Z" fill="#343434"/>
<path d="M600 192H584V208H600V192Z" fill="#3F3F3E"/>
<path d="M696 192H680V208H696V192Z" fill="#0F0E0E"/>
<path d="M712 192H696V208H712V192Z" fill="black"/>
<path d="M552 208H536V224H552V208Z" fill="#878686"/>
<path d="M568 208H552V224H568V208Z" fill="#959594"/>
<path d="M584 208H568V224H584V208Z" fill="#080908"/>
<path d="M600 208H584V224H600V208Z" fill="#373635"/>
<path d="M696 208H680V224H696V208Z" fill="#353535"/>
<path d="M712 208H696V224H712V208Z" fill="#0F0D0E"/>
<path d="M424 224H408V240H424V224Z" fill="#787776"/>
<path d="M440 224H424V240H440V224Z" fill="#8A8889"/>
<path d="M552 224H536V240H552V224Z" fill="black"/>
<path d="M568 224H552V240H568V224Z" fill="#030200"/>
<path d="M584 224H568V240H584V224Z" fill="black"/>
<path d="M600 224H584V240H600V224Z" fill="#040302"/>
<path d="M680 224H664V240H680V224Z" fill="#6D6C6B"/>
<path d="M696 224H680V240H696V224Z" fill="#3C3B3B"/>
<path d="M872 224H856V240H872V224Z" fill="#8B8A89"/>
<path d="M888 224H872V240H888V224Z" fill="#8A8988"/>
<path d="M904 224H888V240H904V224Z" fill="#8C8D8C"/>
<path d="M920 224H904V240H920V224Z" fill="#8F8E8F"/>
<path d="M936 224H920V240H936V224Z" fill="#8D8C8C"/>
<path d="M424 240H408V256H424V240Z" fill="black"/>
<path d="M440 240H424V256H440V240Z" fill="#414241"/>
<path d="M456 240H440V256H456V240Z" fill="#595957"/>
<path d="M552 240H536V256H552V240Z" fill="#010100"/>
<path d="M568 240H552V256H568V240Z" fill="black"/>
<path d="M584 240H568V256H584V240Z" fill="#3A393A"/>
<path d="M600 240H584V256H600V240Z" fill="#030201"/>
<path d="M616 240H600V256H616V240Z" fill="#2B2929"/>
<path d="M664 240H648V256H664V240Z" fill="#5E5C5D"/>
<path d="M680 240H664V256H680V240Z" fill="#3F3F3E"/>
<path d="M696 240H680V256H696V240Z" fill="#3D3C3B"/>
<path d="M824 240H808V256H824V240Z" fill="#7C7B7B"/>
<path d="M840 240H824V256H840V240Z" fill="#565656"/>
<path d="M856 240H840V256H856V240Z" fill="#605F5E"/>
<path d="M872 240H856V256H872V240Z" fill="#868685"/>
<path d="M888 240H872V256H888V240Z" fill="#C8C7C7"/>
<path d="M904 240H888V256H904V240Z" fill="#C5C5C5"/>
<path d="M920 240H904V256H920V240Z" fill="#8C8C8B"/>
<path d="M936 240H920V256H936V240Z" fill="#8F8E8E"/>
<path d="M952 240H936V256H952V240Z" fill="#8D8E8D"/>
<path d="M456 256H440V272H456V256Z" fill="#3B3B3B"/>
<path d="M472 256H456V272H472V256Z" fill="#737370"/>
<path d="M552 256H536V272H552V256Z" fill="#0F0F0F"/>
<path d="M568 256H552V272H568V256Z" fill="#010000"/>
<path d="M584 256H568V272H584V256Z" fill="#3A3B3B"/>
<path d="M600 256H584V272H600V256Z" fill="#343434"/>
<path d="M616 256H600V272H616V256Z" fill="black"/>
<path d="M664 256H648V272H664V256Z" fill="#464645"/>
<path d="M680 256H664V272H680V256Z" fill="#3E3E3D"/>
<path d="M696 256H680V272H696V256Z" fill="#3A3939"/>
<path d="M808 256H792V272H808V256Z" fill="#767674"/>
<path d="M824 256H808V272H824V256Z" fill="#C6C5C5"/>
<path d="M840 256H824V272H840V256Z" fill="#D0D1D1"/>
<path d="M856 256H840V272H856V256Z" fill="#D4D3D3"/>
<path d="M872 256H856V272H872V256Z" fill="#CBC9C9"/>
<path d="M888 256H872V272H888V256Z" fill="#C8C7C7"/>
<path d="M456 272H440V288H456V272Z" fill="#383837"/>
<path d="M472 272H456V288H472V272Z" fill="#3B3A39"/>
<path d="M488 272H472V288H488V272Z" fill="#C1C2C1"/>
<path d="M504 272H488V288H504V272Z" fill="#7F7E7E"/>
<path d="M552 272H536V288H552V272Z" fill="#3D3C3C"/>
<path d="M568 272H552V288H568V272Z" fill="#010101"/>
<path d="M584 272H568V288H584V272Z" fill="#050402"/>
<path d="M600 272H584V288H600V272Z" fill="#383837"/>
<path d="M616 272H600V288H616V272Z" fill="black"/>
<path d="M648 272H632V288H648V272Z" fill="#2D2C2D"/>
<path d="M664 272H648V288H664V272Z" fill="#3E3D3D"/>
<path d="M680 272H664V288H680V272Z" fill="#505050"/>
<path d="M776 272H760V288H776V272Z" fill="#A5A7A6"/>
<path d="M808 272H792V288H808V272Z" fill="#C0C0C0"/>
<path d="M824 272H808V288H824V272Z" fill="#8B8B8A"/>
<path d="M840 272H824V288H840V272Z" fill="#CCCBCB"/>
<path d="M888 272H872V288H888V272Z" fill="white"/>
<path d="M472 288H456V304H472V288Z" fill="#4E4D4D"/>
<path d="M488 288H472V304H488V288Z" fill="#292928"/>
<path d="M504 288H488V304H504V288Z" fill="#5F5F5E"/>
<path d="M552 288H536V304H552V288Z" fill="#444445"/>
<path d="M568 288H552V304H568V288Z" fill="#848484"/>
<path d="M584 288H568V304H584V288Z" fill="#858483"/>
<path d="M600 288H584V304H600V288Z" fill="#3A3939"/>
<path d="M616 288H600V304H616V288Z" fill="black"/>
<path d="M648 288H632V304H648V288Z" fill="#171616"/>
<path d="M664 288H648V304H664V288Z" fill="#3D3B3B"/>
<path d="M680 288H664V304H680V288Z" fill="#38373A"/>
<path d="M776 288H760V304H776V288Z" fill="#BEBEBD"/>
<path d="M792 288H776V304H792V288Z" fill="#6D6D6C"/>
<path d="M808 288H792V304H808V288Z" fill="#858483"/>
<path d="M824 288H808V304H824V288Z" fill="#919190"/>
<path d="M856 288H840V304H856V288Z" fill="#CCCCCB"/>
<path d="M872 288H856V304H872V288Z" fill="#C3C3C3"/>
<path d="M888 288H872V304H888V288Z" fill="#C5C5C4"/>
<path d="M904 288H888V304H904V288Z" fill="#C4C4C4"/>
<path d="M920 288H904V304H920V288Z" fill="#C5C6C6"/>
<path d="M936 288H920V304H936V288Z" fill="#C5C4C5"/>
<path d="M952 288H936V304H952V288Z" fill="#C5C6C6"/>
<path d="M472 304H456V320H472V304Z" fill="#B9B9B9"/>
<path d="M488 304H472V320H488V304Z" fill="#080602"/>
<path d="M504 304H488V320H504V304Z" fill="#3B3B3A"/>
<path d="M520 304H504V320H520V304Z" fill="#C0BFBF"/>
<path d="M536 304H520V320H536V304Z" fill="#4F4E4E"/>
<path d="M568 304H552V320H568V304Z" fill="#3E3E3E"/>
<path d="M584 304H568V320H584V304Z" fill="#454544"/>
<path d="M600 304H584V320H600V304Z" fill="#3F3F3F"/>
<path d="M616 304H600V320H616V304Z" fill="#030200"/>
<path d="M648 304H632V320H648V304Z" fill="#323230"/>
<path d="M664 304H648V320H664V304Z" fill="#3D3E3C"/>
<path d="M680 304H664V320H680V304Z" fill="#313034"/>
<path d="M776 304H760V320H776V304Z" fill="#C6C6C6"/>
<path d="M792 304H776V320H792V304Z" fill="#4D4D4D"/>
<path d="M808 304H792V320H808V304Z" fill="#878685"/>
<path d="M856 304H840V320H856V304Z" fill="#C8C7C7"/>
<path d="M872 304H856V320H872V304Z" fill="#CAC9C9"/>
<path d="M888 304H872V320H888V304Z" fill="#CAC8C8"/>
<path d="M904 304H888V320H904V304Z" fill="#CACACA"/>
<path d="M920 304H904V320H920V304Z" fill="#CBCACA"/>
<path d="M936 304H920V320H936V304Z" fill="#CAC9C9"/>
<path d="M952 304H936V320H952V304Z" fill="#CDCCCC"/>
<path d="M328 320H312V336H328V320Z" fill="#212121"/>
<path d="M344 320H328V336H344V320Z" fill="#10110F"/>
<path d="M360 320H344V336H360V320Z" fill="black"/>
<path d="M376 320H360V336H376V320Z" fill="#3A3A39"/>
<path d="M392 320H376V336H392V320Z" fill="#020203"/>
<path d="M408 320H392V336H408V320Z" fill="#555656"/>
<path d="M488 320H472V336H488V320Z" fill="#828181"/>
<path d="M504 320H488V336H504V320Z" fill="#707070"/>
<path d="M520 320H504V336H520V320Z" fill="#494847"/>
<path d="M536 320H520V336H536V320Z" fill="#101010"/>
<path d="M568 320H552V336H568V320Z" fill="#696866"/>
<path d="M584 320H568V336H584V320Z" fill="#010100"/>
<path d="M600 320H584V336H600V320Z" fill="#464545"/>
<path d="M616 320H600V336H616V320Z" fill="#020202"/>
<path d="M632 320H616V336H632V320Z" fill="#010101"/>
<path d="M648 320H632V336H648V320Z" fill="#2C2C2B"/>
<path d="M664 320H648V336H664V320Z" fill="#121312"/>
<path d="M680 320H664V336H680V320Z" fill="#5B595B"/>
<path d="M744 320H728V336H744V320Z" fill="#D1D2D2"/>
<path d="M760 320H744V336H760V320Z" fill="#8E8F8D"/>
<path d="M776 320H760V336H776V320Z" fill="#C9C8C9"/>
<path d="M792 320H776V336H792V320Z" fill="#FEFEFD"/>
<path d="M808 320H792V336H808V320Z" fill="#FCFBFC"/>
<path d="M824 320H808V336H824V320Z" fill="#C8C7C7"/>
<path d="M840 320H824V336H840V320Z" fill="#CAC9C9"/>
<path d="M856 320H840V336H856V320Z" fill="#C9C9C9"/>
<path d="M872 320H856V336H872V320Z" fill="#C9C8C9"/>
<path d="M888 320H872V336H888V320Z" fill="#CAC9C9"/>
<path d="M904 320H888V336H904V320Z" fill="#CACACA"/>
<path d="M920 320H904V336H920V320Z" fill="#CACACA"/>
<path d="M936 320H920V336H936V320Z" fill="#CACACA"/>
<path d="M952 320H936V336H952V320Z" fill="#CAC9C9"/>
<path d="M968 320H952V336H968V320Z" fill="#D6D6D6"/>
<path d="M328 336H312V352H328V336Z" fill="#040302"/>
<path d="M344 336H328V352H344V336Z" fill="#363535"/>
<path d="M360 336H344V352H360V336Z" fill="#393938"/>
<path d="M376 336H360V352H376V336Z" fill="#040301"/>
<path d="M392 336H376V352H392V336Z" fill="#030201"/>
<path d="M408 336H392V352H408V336Z" fill="black"/>
<path d="M424 336H408V352H424V336Z" fill="#7F8080"/>
<path d="M488 336H472V352H488V336Z" fill="#848483"/>
<path d="M504 336H488V352H504V336Z" fill="#818080"/>
<path d="M520 336H504V352H520V336Z" fill="#3D3E3D"/>
<path d="M536 336H520V352H536V336Z" fill="black"/>
<path d="M584 336H568V352H584V336Z" fill="#010101"/>
<path d="M600 336H584V352H600V336Z" fill="#777777"/>
<path d="M616 336H600V352H616V336Z" fill="#060606"/>
<path d="M632 336H616V352H632V336Z" fill="black"/>
<path d="M648 336H632V352H648V336Z" fill="#868585"/>
<path d="M664 336H648V352H664V336Z" fill="black"/>
<path d="M680 336H664V352H680V336Z" fill="#807F80"/>
<path d="M744 336H728V352H744V336Z" fill="#BBBABA"/>
<path d="M760 336H744V352H760V336Z" fill="#5A5A59"/>
<path d="M808 336H792V352H808V336Z" fill="#F4F4F4"/>
<path d="M824 336H808V352H824V336Z" fill="#C9C8C8"/>
<path d="M840 336H824V352H840V336Z" fill="#C9C8C8"/>
<path d="M856 336H840V352H856V336Z" fill="#CACACA"/>
<path d="M872 336H856V352H872V336Z" fill="#888787"/>
<path d="M888 336H872V352H888V336Z" fill="#8B8B8B"/>
<path d="M904 336H888V352H904V336Z" fill="#CACACA"/>
<path d="M920 336H904V352H920V336Z" fill="#C8C7C7"/>
<path d="M936 336H920V352H936V336Z" fill="#C9C7C7"/>
<path d="M952 336H936V352H952V336Z" fill="#868584"/>
<path d="M968 336H952V352H968V336Z" fill="#C8C8C7"/>
<path d="M344 352H328V368H344V352Z" fill="#494947"/>
<path d="M360 352H344V368H360V352Z" fill="#3E3D3C"/>
<path d="M376 352H360V368H376V352Z" fill="#4F4E4C"/>
<path d="M392 352H376V368H392V352Z" fill="#4B4B4A"/>
<path d="M408 352H392V368H408V352Z" fill="#393938"/>
<path d="M424 352H408V368H424V352Z" fill="#4A4A48"/>
<path d="M440 352H424V368H440V352Z" fill="#3E3E3E"/>
<path d="M504 352H488V368H504V352Z" fill="#141514"/>
<path d="M520 352H504V368H520V352Z" fill="black"/>
<path d="M536 352H520V368H536V352Z" fill="#040300"/>
<path d="M552 352H536V368H552V352Z" fill="#807F7F"/>
<path d="M568 352H552V368H568V352Z" fill="#7F7F7D"/>
<path d="M584 352H568V368H584V352Z" fill="#010100"/>
<path d="M600 352H584V368H600V352Z" fill="#010100"/>
<path d="M616 352H600V368H616V352Z" fill="#030303"/>
<path d="M632 352H616V368H632V352Z" fill="#000100"/>
<path d="M648 352H632V368H648V352Z" fill="#333232"/>
<path d="M664 352H648V368H664V352Z" fill="#030300"/>
<path d="M680 352H664V368H680V352Z" fill="#AAAAAA"/>
<path d="M712 352H696V368H712V352Z" fill="#898887"/>
<path d="M728 352H712V368H728V352Z" fill="#4E504D"/>
<path d="M744 352H728V368H744V352Z" fill="#060504"/>
<path d="M792 352H776V368H792V352Z" fill="#F8F7F7"/>
<path d="M808 352H792V368H808V352Z" fill="#C8C8C8"/>
<path d="M824 352H808V368H824V352Z" fill="#C7C7C6"/>
<path d="M840 352H824V368H840V352Z" fill="#8C8B8B"/>
<path d="M856 352H840V368H856V352Z" fill="#C3C3C2"/>
<path d="M872 352H856V368H872V352Z" fill="#878686"/>
<path d="M888 352H872V368H888V352Z" fill="#C4C4C3"/>
<path d="M904 352H888V368H904V352Z" fill="#929191"/>
<path d="M920 352H904V368H920V352Z" fill="#C9C9C9"/>
<path d="M936 352H920V368H936V352Z" fill="#888785"/>
<path d="M952 352H936V368H952V352Z" fill="#8C8C8B"/>
<path d="M360 368H344V384H360V368Z" fill="#040303"/>
<path d="M376 368H360V384H376V368Z" fill="#010101"/>
<path d="M392 368H376V384H392V368Z" fill="#3A3A39"/>
<path d="M408 368H392V384H408V368Z" fill="#080603"/>
<path d="M424 368H408V384H424V368Z" fill="#4E4E4D"/>
<path d="M440 368H424V384H440V368Z" fill="#4F4F4F"/>
<path d="M456 368H440V384H456V368Z" fill="#878686"/>
<path d="M472 368H456V384H472V368Z" fill="#C5C4C5"/>
<path d="M520 368H504V384H520V368Z" fill="black"/>
<path d="M536 368H520V384H536V368Z" fill="#050402"/>
<path d="M552 368H536V384H552V368Z" fill="black"/>
<path d="M568 368H552V384H568V368Z" fill="black"/>
<path d="M584 368H568V384H584V368Z" fill="#010100"/>
<path d="M600 368H584V384H600V368Z" fill="black"/>
<path d="M616 368H600V384H616V368Z" fill="#050505"/>
<path d="M632 368H616V384H632V368Z" fill="#070402"/>
<path d="M648 368H632V384H648V368Z" fill="#0D0D0D"/>
<path d="M664 368H648V384H664V368Z" fill="#010101"/>
<path d="M680 368H664V384H680V368Z" fill="#F5F5F5"/>
<path d="M696 368H680V384H696V368Z" fill="#C9C9C8"/>
<path d="M712 368H696V384H712V368Z" fill="#C9C8C9"/>
<path d="M728 368H712V384H728V368Z" fill="#C6C6C5"/>
<path d="M744 368H728V384H744V368Z" fill="#929091"/>
<path d="M776 368H760V384H776V368Z" fill="#C7C6C6"/>
<path d="M792 368H776V384H792V368Z" fill="#C7C6C6"/>
<path d="M808 368H792V384H808V368Z" fill="#C8C8C8"/>
<path d="M824 368H808V384H824V368Z" fill="#81807F"/>
<path d="M840 368H824V384H840V368Z" fill="#C9C8C9"/>
<path d="M856 368H840V384H856V368Z" fill="#8A8888"/>
<path d="M872 368H856V384H872V368Z" fill="#BFBFC0"/>
<path d="M888 368H872V384H888V368Z" fill="#C9C9CA"/>
<path d="M920 368H904V384H920V368Z" fill="#CCCCCA"/>
<path d="M936 368H920V384H936V368Z" fill="#7E7E7D"/>
<path d="M376 384H360V400H376V384Z" fill="#868685"/>
<path d="M392 384H376V400H392V384Z" fill="black"/>
<path d="M408 384H392V400H408V384Z" fill="#020100"/>
<path d="M424 384H408V400H424V384Z" fill="#010101"/>
<path d="M440 384H424V400H440V384Z" fill="#010101"/>
<path d="M456 384H440V400H456V384Z" fill="#666666"/>
<path d="M472 384H456V400H472V384Z" fill="#363635"/>
<path d="M488 384H472V400H488V384Z" fill="#868685"/>
<path d="M520 384H504V400H520V384Z" fill="#070402"/>
<path d="M536 384H520V400H536V384Z" fill="#3C3C3B"/>
<path d="M552 384H536V400H552V384Z" fill="black"/>
<path d="M568 384H552V400H568V384Z" fill="black"/>
<path d="M584 384H568V400H584V384Z" fill="#010101"/>
<path d="M600 384H584V400H600V384Z" fill="#010101"/>
<path d="M616 384H600V400H616V384Z" fill="black"/>
<path d="M632 384H616V400H632V384Z" fill="#787778"/>
<path d="M648 384H632V400H648V384Z" fill="#090A09"/>
<path d="M664 384H648V400H664V384Z" fill="#353534"/>
<path d="M680 384H664V400H680V384Z" fill="#999999"/>
<path d="M696 384H680V400H696V384Z" fill="#CAC9C9"/>
<path d="M712 384H696V400H712V384Z" fill="#CAC8C9"/>
<path d="M728 384H712V400H728V384Z" fill="#BDBDBD"/>
<path d="M744 384H728V400H744V384Z" fill="#D4D4D4"/>
<path d="M760 384H744V400H760V384Z" fill="#C8C7C7"/>
<path d="M776 384H760V400H776V384Z" fill="#9E9D9D"/>
<path d="M792 384H776V400H792V384Z" fill="#C6C5C5"/>
<path d="M808 384H792V400H808V384Z" fill="#C6C5C5"/>
<path d="M824 384H808V400H824V384Z" fill="#898989"/>
<path d="M840 384H824V400H840V384Z" fill="#CCCBCC"/>
<path d="M936 384H920V400H936V384Z" fill="#D0D0D0"/>
<path d="M392 400H376V416H392V400Z" fill="#020202"/>
<path d="M408 400H392V416H408V400Z" fill="#464645"/>
<path d="M424 400H408V416H424V400Z" fill="#020202"/>
<path d="M440 400H424V416H440V400Z" fill="#474646"/>
<path d="M456 400H440V416H456V400Z" fill="#3A3939"/>
<path d="M472 400H456V416H472V400Z" fill="#41403F"/>
<path d="M488 400H472V416H488V400Z" fill="#313130"/>
<path d="M504 400H488V416H504V400Z" fill="#4B4B4A"/>
<path d="M520 400H504V416H520V400Z" fill="black"/>
<path d="M536 400H520V416H536V400Z" fill="#AEAEAE"/>
<path d="M552 400H536V416H552V400Z" fill="black"/>
<path d="M568 400H552V416H568V400Z" fill="#010100"/>
<path d="M584 400H568V416H584V400Z" fill="#010100"/>
<path d="M600 400H584V416H600V400Z" fill="black"/>
<path d="M616 400H600V416H616V400Z" fill="#424240"/>
<path d="M632 400H616V416H632V400Z" fill="#414140"/>
<path d="M648 400H632V416H648V400Z" fill="#4A4948"/>
<path d="M664 400H648V416H664V400Z" fill="#CFD0D0"/>
<path d="M680 400H664V416H680V400Z" fill="#C9C8C8"/>
<path d="M696 400H680V416H696V400Z" fill="#CAC9C9"/>
<path d="M712 400H696V416H712V400Z" fill="#8B8B8B"/>
<path d="M728 400H712V416H728V400Z" fill="#F9F9F8"/>
<path d="M744 400H728V416H744V400Z" fill="#CBCBCB"/>
<path d="M760 400H744V416H760V400Z" fill="#C8C7C7"/>
<path d="M776 400H760V416H776V400Z" fill="#6E6F6E"/>
<path d="M792 400H776V416H792V400Z" fill="#8C8B8B"/>
<path d="M808 400H792V416H808V400Z" fill="#AAAAAA"/>
<path d="M824 400H808V416H824V400Z" fill="#C4C3C4"/>
<path d="M392 416H376V432H392V416Z" fill="#080808"/>
<path d="M408 416H392V432H408V416Z" fill="black"/>
<path d="M424 416H408V432H424V416Z" fill="black"/>
<path d="M440 416H424V432H440V416Z" fill="#010000"/>
<path d="M456 416H440V432H456V416Z" fill="#414140"/>
<path d="M472 416H456V432H472V416Z" fill="#41403F"/>
<path d="M488 416H472V432H488V416Z" fill="#484948"/>
<path d="M504 416H488V432H504V416Z" fill="#474746"/>
<path d="M520 416H504V432H520V416Z" fill="#040201"/>
<path d="M536 416H520V432H536V416Z" fill="#3C3B3A"/>
<path d="M552 416H536V432H552V416Z" fill="#010100"/>
<path d="M568 416H552V432H568V416Z" fill="#000101"/>
<path d="M584 416H568V432H584V416Z" fill="black"/>
<path d="M600 416H584V432H600V416Z" fill="#020201"/>
<path d="M616 416H600V432H616V416Z" fill="#808080"/>
<path d="M632 416H616V432H632V416Z" fill="#424242"/>
<path d="M648 416H632V432H648V416Z" fill="#C8C8C7"/>
<path d="M664 416H648V432H664V416Z" fill="#C9C8C8"/>
<path d="M680 416H664V432H680V416Z" fill="#CBCACA"/>
<path d="M696 416H680V432H696V416Z" fill="#C9C9C9"/>
<path d="M712 416H696V432H712V416Z" fill="#C9C8C8"/>
<path d="M728 416H712V432H728V416Z" fill="#C9C8CA"/>
<path d="M744 416H728V432H744V416Z" fill="#C8C7C8"/>
<path d="M760 416H744V432H760V416Z" fill="#C7C7C7"/>
<path d="M776 416H760V432H776V416Z" fill="#9D9D9D"/>
<path d="M792 416H776V432H792V416Z" fill="#4B4A4A"/>
<path d="M808 416H792V432H808V416Z" fill="#D0CED0"/>
<path d="M392 432H376V448H392V432Z" fill="black"/>
<path d="M408 432H392V448H408V432Z" fill="#030201"/>
<path d="M424 432H408V448H424V432Z" fill="#010000"/>
<path d="M440 432H424V448H440V432Z" fill="black"/>
<path d="M456 432H440V448H456V432Z" fill="black"/>
<path d="M472 432H456V448H472V432Z" fill="#191818"/>
<path d="M488 432H472V448H488V432Z" fill="#242321"/>
<path d="M504 432H488V448H504V432Z" fill="#252625"/>
<path d="M520 432H504V448H520V432Z" fill="black"/>
<path d="M536 432H520V448H536V432Z" fill="#323332"/>
<path d="M552 432H536V448H552V432Z" fill="black"/>
<path d="M568 432H552V448H568V432Z" fill="black"/>
<path d="M584 432H568V448H584V432Z" fill="#000100"/>
<path d="M600 432H584V448H600V432Z" fill="black"/>
<path d="M616 432H600V448H616V432Z" fill="#838181"/>
<path d="M632 432H616V448H632V432Z" fill="#7B7A79"/>
<path d="M648 432H632V448H648V432Z" fill="#CAC9CA"/>
<path d="M664 432H648V448H664V432Z" fill="#CBCACA"/>
<path d="M680 432H664V448H680V432Z" fill="#CAC9C9"/>
<path d="M696 432H680V448H696V432Z" fill="#D3D3D3"/>
<path d="M712 432H696V448H712V432Z" fill="#C9C8C8"/>
<path d="M728 432H712V448H728V432Z" fill="#C7C6C6"/>
<path d="M744 432H728V448H744V432Z" fill="#AFAFAE"/>
<path d="M760 432H744V448H760V432Z" fill="#888787"/>
<path d="M776 432H760V448H776V432Z" fill="#A3A3A3"/>
<path d="M408 448H392V464H408V448Z" fill="#030201"/>
<path d="M424 448H408V464H424V448Z" fill="#272827"/>
<path d="M440 448H424V464H440V448Z" fill="#020201"/>
<path d="M456 448H440V464H456V448Z" fill="#020202"/>
<path d="M472 448H456V464H472V448Z" fill="#010100"/>
<path d="M488 448H472V464H488V448Z" fill="black"/>
<path d="M504 448H488V464H504V448Z" fill="black"/>
<path d="M520 448H504V464H520V448Z" fill="#858484"/>
<path d="M536 448H520V464H536V448Z" fill="#888887"/>
<path d="M552 448H536V464H552V448Z" fill="#393938"/>
<path d="M568 448H552V464H568V448Z" fill="#010100"/>
<path d="M584 448H568V464H584V448Z" fill="black"/>
<path d="M600 448H584V464H600V448Z" fill="#010101"/>
<path d="M616 448H600V464H616V448Z" fill="#D6D6D6"/>
<path d="M632 448H616V464H632V448Z" fill="#CCCBCB"/>
<path d="M648 448H632V464H648V448Z" fill="#CAC9CA"/>
<path d="M664 448H648V464H664V448Z" fill="#CACBCB"/>
<path d="M680 448H664V464H680V448Z" fill="#C8C9C9"/>
<path d="M696 448H680V464H696V448Z" fill="#CAC9C9"/>
<path d="M712 448H696V464H712V448Z" fill="#C9C9C8"/>
<path d="M728 448H712V464H728V448Z" fill="#888886"/>
<path d="M744 448H728V464H744V448Z" fill="#858484"/>
<path d="M760 448H744V464H760V448Z" fill="#868484"/>
<path d="M776 448H760V464H776V448Z" fill="#D0CFD0"/>
<path d="M424 464H408V480H424V464Z" fill="#5E5D5D"/>
<path d="M440 464H424V480H440V464Z" fill="black"/>
<path d="M456 464H440V480H456V464Z" fill="#010101"/>
<path d="M472 464H456V480H472V464Z" fill="black"/>
<path d="M488 464H472V480H488V464Z" fill="#010100"/>
<path d="M504 464H488V480H504V464Z" fill="#000100"/>
<path d="M520 464H504V480H520V464Z" fill="#010101"/>
<path d="M536 464H520V480H536V464Z" fill="#858585"/>
<path d="M552 464H536V480H552V464Z" fill="#040404"/>
<path d="M568 464H552V480H568V464Z" fill="#403F3E"/>
<path d="M584 464H568V480H584V464Z" fill="black"/>
<path d="M600 464H584V480H600V464Z" fill="#070807"/>
<path d="M616 464H600V480H616V464Z" fill="#CCCCCC"/>
<path d="M632 464H616V480H632V464Z" fill="#CACACA"/>
<path d="M648 464H632V480H648V464Z" fill="#CACACA"/>
<path d="M664 464H648V480H664V464Z" fill="#C9C9C9"/>
<path d="M680 464H664V480H680V464Z" fill="#848483"/>
<path d="M696 464H680V480H696V464Z" fill="#C7C5C6"/>
<path d="M712 464H696V480H712V464Z" fill="#8B8A8A"/>
<path d="M728 464H712V480H728V464Z" fill="#807E7E"/>
<path d="M744 464H728V480H744V464Z" fill="#B9B8B8"/>
<path d="M760 464H744V480H760V464Z" fill="#7E7D7D"/>
<path d="M776 464H760V480H776V464Z" fill="#FEFDFE"/>
<path d="M440 480H424V496H440V480Z" fill="#B8BABA"/>
<path d="M456 480H440V496H456V480Z" fill="#2F2F2E"/>
<path d="M472 480H456V496H472V480Z" fill="#3D3D3D"/>
<path d="M488 480H472V496H488V480Z" fill="#010100"/>
<path d="M504 480H488V496H504V480Z" fill="black"/>
<path d="M520 480H504V496H520V480Z" fill="#010101"/>
<path d="M536 480H520V496H536V480Z" fill="#020202"/>
<path d="M552 480H536V496H552V480Z" fill="#474545"/>
<path d="M568 480H552V496H568V480Z" fill="#464646"/>
<path d="M584 480H568V496H584V480Z" fill="#464647"/>
<path d="M600 480H584V496H600V480Z" fill="#9F9F9E"/>
<path d="M616 480H600V496H616V480Z" fill="#CBCBCB"/>
<path d="M632 480H616V496H632V480Z" fill="#CAC9C9"/>
<path d="M648 480H632V496H648V480Z" fill="#CCCBCB"/>
<path d="M664 480H648V496H664V480Z" fill="#CBCBCB"/>
<path d="M680 480H664V496H680V480Z" fill="#888787"/>
<path d="M696 480H680V496H696V480Z" fill="#030202"/>
<path d="M712 480H696V496H712V480Z" fill="#363635"/>
<path d="M728 480H712V496H728V480Z" fill="#3E3E3E"/>
<path d="M744 480H728V496H744V480Z" fill="black"/>
<path d="M760 480H744V496H760V480Z" fill="#050303"/>
<path d="M776 480H760V496H776V480Z" fill="#DEE0DF"/>
<path d="M792 480H776V496H792V480Z" fill="#EEEDED"/>
<path d="M808 480H792V496H808V480Z" fill="#E8E8E8"/>
<path d="M456 496H440V512H456V496Z" fill="#040402"/>
<path d="M472 496H456V512H472V496Z" fill="#3D3C3C"/>
<path d="M488 496H472V512H488V496Z" fill="#010100"/>
<path d="M504 496H488V512H504V496Z" fill="#020101"/>
<path d="M520 496H504V512H520V496Z" fill="#010100"/>
<path d="M536 496H520V512H536V496Z" fill="#020202"/>
<path d="M552 496H536V512H552V496Z" fill="#10100F"/>
<path d="M568 496H552V512H568V496Z" fill="#484847"/>
<path d="M584 496H568V512H584V496Z" fill="#434342"/>
<path d="M600 496H584V512H600V496Z" fill="#C8C7C7"/>
<path d="M616 496H600V512H616V496Z" fill="#CBCBCC"/>
<path d="M632 496H616V512H632V496Z" fill="#CAC9C9"/>
<path d="M648 496H632V512H648V496Z" fill="#CACACA"/>
<path d="M664 496H648V512H664V496Z" fill="#C9C9C9"/>
<path d="M680 496H664V512H680V496Z" fill="#9A9999"/>
<path d="M696 496H680V512H696V496Z" fill="#4A4A48"/>
<path d="M712 496H696V512H712V496Z" fill="#3D3C3C"/>
<path d="M728 496H712V512H728V496Z" fill="#383836"/>
<path d="M744 496H728V512H744V496Z" fill="#010100"/>
<path d="M760 496H744V512H760V496Z" fill="#424141"/>
<path d="M776 496H760V512H776V496Z" fill="#71716F"/>
<path d="M792 496H776V512H792V496Z" fill="#C8C7C7"/>
<path d="M808 496H792V512H808V496Z" fill="#C9C9C9"/>
<path d="M488 512H472V528H488V512Z" fill="#3E3E3E"/>
<path d="M504 512H488V528H504V512Z" fill="#5B5B59"/>
<path d="M520 512H504V528H520V512Z" fill="#3A3A3A"/>
<path d="M536 512H520V528H536V512Z" fill="#010101"/>
<path d="M552 512H536V528H552V512Z" fill="#2E2E2D"/>
<path d="M568 512H552V528H568V512Z" fill="#4A4949"/>
<path d="M584 512H568V528H584V512Z" fill="#7E7D7D"/>
<path d="M600 512H584V528H600V512Z" fill="#CCCCCC"/>
<path d="M616 512H600V528H616V512Z" fill="#CAC9C9"/>
<path d="M632 512H616V528H632V512Z" fill="#C9CAC9"/>
<path d="M648 512H632V528H648V512Z" fill="#C8C8C9"/>
<path d="M664 512H648V528H664V512Z" fill="#C6C5C5"/>
<path d="M680 512H664V528H680V512Z" fill="#4B4A4B"/>
<path d="M696 512H680V528H696V512Z" fill="#0D0D0C"/>
<path d="M712 512H696V528H712V512Z" fill="#010000"/>
<path d="M728 512H712V528H728V512Z" fill="#010101"/>
<path d="M744 512H728V528H744V512Z" fill="#373736"/>
<path d="M760 512H744V528H760V512Z" fill="#393938"/>
<path d="M776 512H760V528H776V512Z" fill="#2B2B2A"/>
<path d="M792 512H776V528H792V512Z" fill="#8C8B8B"/>
<path d="M808 512H792V528H808V512Z" fill="#ABA9A9"/>
<path d="M824 512H808V528H824V512Z" fill="#A0A09F"/>
<path d="M520 528H504V544H520V528Z" fill="#3C3C3C"/>
<path d="M536 528H520V544H536V528Z" fill="#030303"/>
<path d="M552 528H536V544H552V528Z" fill="#0C0B0C"/>
<path d="M568 528H552V544H568V528Z" fill="#4D4D4D"/>
<path d="M584 528H568V544H584V528Z" fill="#CAC8C8"/>
<path d="M600 528H584V544H600V528Z" fill="#C9C9C8"/>
<path d="M616 528H600V544H616V528Z" fill="#CACACA"/>
<path d="M632 528H616V544H632V528Z" fill="#C9C9C9"/>
<path d="M648 528H632V544H648V528Z" fill="#636463"/>
<path d="M664 528H648V544H664V528Z" fill="#949293"/>
<path d="M680 528H664V544H680V528Z" fill="#7D7D7D"/>
<path d="M696 528H680V544H696V528Z" fill="#010000"/>
<path d="M712 528H696V544H712V528Z" fill="#010000"/>
<path d="M728 528H712V544H728V528Z" fill="black"/>
<path d="M744 528H728V544H744V528Z" fill="#787776"/>
<path d="M760 528H744V544H760V528Z" fill="#8D8C8B"/>
<path d="M776 528H760V544H776V528Z" fill="#2F2F2E"/>
<path d="M328 544H312V560H328V544Z" fill="#484748"/>
<path d="M344 544H328V560H344V544Z" fill="black"/>
<path d="M360 544H344V560H360V544Z" fill="#797878"/>
<path d="M376 544H360V560H376V544Z" fill="#050504"/>
<path d="M392 544H376V560H392V544Z" fill="#828282"/>
<path d="M408 544H392V560H408V544Z" fill="#CAC9C9"/>
<path d="M424 544H408V560H424V544Z" fill="#CBCACA"/>
<path d="M440 544H424V560H440V544Z" fill="#CAC8C8"/>
<path d="M456 544H440V560H456V544Z" fill="#CAC9C9"/>
<path d="M472 544H456V560H472V544Z" fill="#C8C8C8"/>
<path d="M488 544H472V560H488V544Z" fill="#CBCBCC"/>
<path d="M504 544H488V560H504V544Z" fill="#CBCACB"/>
<path d="M520 544H504V560H520V544Z" fill="#797979"/>
<path d="M536 544H520V560H536V544Z" fill="#424241"/>
<path d="M552 544H536V560H552V544Z" fill="#4E4C4D"/>
<path d="M568 544H552V560H568V544Z" fill="#494948"/>
<path d="M584 544H568V560H584V544Z" fill="#CBC9CA"/>
<path d="M600 544H584V560H600V544Z" fill="#C9CACA"/>
<path d="M616 544H600V560H616V544Z" fill="#C9C9C9"/>
<path d="M632 544H616V560H632V544Z" fill="#C9C8C9"/>
<path d="M648 544H632V560H648V544Z" fill="#C9C8C9"/>
<path d="M664 544H648V560H664V544Z" fill="#030200"/>
<path d="M680 544H664V560H680V544Z" fill="black"/>
<path d="M696 544H680V560H696V544Z" fill="#010000"/>
<path d="M712 544H696V560H712V544Z" fill="black"/>
<path d="M728 544H712V560H728V544Z" fill="#010101"/>
<path d="M744 544H728V560H744V544Z" fill="#797978"/>
<path d="M280 560H264V576H280V560Z" fill="#959592"/>
<path d="M296 560H280V576H296V560Z" fill="#444444"/>
<path d="M312 560H296V576H312V560Z" fill="#404040"/>
<path d="M328 560H312V576H328V560Z" fill="#858482"/>
<path d="M344 560H328V576H344V560Z" fill="#C6C5C5"/>
<path d="M360 560H344V576H360V560Z" fill="#C9C9C9"/>
<path d="M376 560H360V576H376V560Z" fill="#C9C8C7"/>
<path d="M392 560H376V576H392V560Z" fill="#CACACA"/>
<path d="M408 560H392V576H408V560Z" fill="#CAC9C9"/>
<path d="M424 560H408V576H424V560Z" fill="#CAC9C9"/>
<path d="M440 560H424V576H440V560Z" fill="#CAC8C8"/>
<path d="M456 560H440V576H456V560Z" fill="#C8C7C7"/>
<path d="M472 560H456V576H472V560Z" fill="#C9C8C9"/>
<path d="M488 560H472V576H488V560Z" fill="#4E4E4E"/>
<path d="M504 560H488V576H504V560Z" fill="#CBCBCB"/>
<path d="M520 560H504V576H520V560Z" fill="#C9C8C8"/>
<path d="M536 560H520V576H536V560Z" fill="#CBCBCA"/>
<path d="M552 560H536V576H552V560Z" fill="#565656"/>
<path d="M568 560H552V576H568V560Z" fill="#484847"/>
<path d="M584 560H568V576H584V560Z" fill="#C7C6C7"/>
<path d="M600 560H584V576H600V560Z" fill="#808080"/>
<path d="M616 560H600V576H616V560Z" fill="#4D4E4E"/>
<path d="M632 560H616V576H632V560Z" fill="#C9C8C8"/>
<path d="M648 560H632V576H648V560Z" fill="#505151"/>
<path d="M664 560H648V576H664V560Z" fill="#4E4E4E"/>
<path d="M680 560H664V576H680V560Z" fill="#383838"/>
<path d="M696 560H680V576H696V560Z" fill="#424241"/>
<path d="M712 560H696V576H712V560Z" fill="#3F3D3E"/>
<path d="M728 560H712V576H728V560Z" fill="#403F3F"/>
<path d="M744 560H728V576H744V560Z" fill="black"/>
<path d="M760 560H744V576H760V560Z" fill="black"/>
<path d="M776 560H760V576H776V560Z" fill="#000100"/>
<path d="M792 560H776V576H792V560Z" fill="#010101"/>
<path d="M808 560H792V576H808V560Z" fill="#020202"/>
<path d="M824 560H808V576H824V560Z" fill="#999998"/>
<path d="M280 576H264V592H280V576Z" fill="#939292"/>
<path d="M296 576H280V592H296V576Z" fill="#4D4C4C"/>
<path d="M312 576H296V592H312V576Z" fill="#C9C9C9"/>
<path d="M328 576H312V592H328V576Z" fill="#C7C7C6"/>
<path d="M344 576H328V592H344V576Z" fill="#C9C9C9"/>
<path d="M360 576H344V592H360V576Z" fill="#CACACA"/>
<path d="M376 576H360V592H376V576Z" fill="#C9C9C9"/>
<path d="M392 576H376V592H392V576Z" fill="#CAC8C9"/>
<path d="M408 576H392V592H408V576Z" fill="#CAC9C9"/>
<path d="M424 576H408V592H424V576Z" fill="#C9C8C8"/>
<path d="M440 576H424V592H440V576Z" fill="#C1C0BF"/>
<path d="M456 576H440V592H456V576Z" fill="#4C4C4B"/>
<path d="M472 576H456V592H472V576Z" fill="#4C4C4C"/>
<path d="M488 576H472V592H488V576Z" fill="#4A4A49"/>
<path d="M504 576H488V592H504V576Z" fill="#C2C1C1"/>
<path d="M520 576H504V592H520V576Z" fill="#545454"/>
<path d="M536 576H520V592H536V576Z" fill="#BBBBBA"/>
<path d="M552 576H536V592H552V576Z" fill="#8E8D8D"/>
<path d="M568 576H552V592H568V576Z" fill="#4C4C4C"/>
<path d="M584 576H568V592H584V576Z" fill="#4D4D4D"/>
<path d="M600 576H584V592H600V576Z" fill="#4D4D4D"/>
<path d="M616 576H600V592H616V576Z" fill="#4B4B4B"/>
<path d="M632 576H616V592H632V576Z" fill="#4E4D4D"/>
<path d="M648 576H632V592H648V576Z" fill="#C5C5C4"/>
<path d="M664 576H648V592H664V576Z" fill="#4F4F4F"/>
<path d="M680 576H664V592H680V576Z" fill="#2C2D2D"/>
<path d="M696 576H680V592H696V576Z" fill="#020201"/>
<path d="M712 576H696V592H712V576Z" fill="#3C3C3A"/>
<path d="M728 576H712V592H728V576Z" fill="#393A39"/>
<path d="M744 576H728V592H744V576Z" fill="#030303"/>
<path d="M760 576H744V592H760V576Z" fill="#3D3C3C"/>
<path d="M776 576H760V592H776V576Z" fill="black"/>
<path d="M792 576H776V592H792V576Z" fill="black"/>
<path d="M808 576H792V592H808V576Z" fill="#020201"/>
<path d="M824 576H808V592H824V576Z" fill="black"/>
<path d="M840 576H824V592H840V576Z" fill="#020101"/>
<path d="M856 576H840V592H856V576Z" fill="black"/>
<path d="M872 576H856V592H872V576Z" fill="#010101"/>
<path d="M888 576H872V592H888V576Z" fill="#3D3C3C"/>
<path d="M264 592H248V608H264V592Z" fill="#070605"/>
<path d="M280 592H264V608H280V592Z" fill="#828280"/>
<path d="M296 592H280V608H296V592Z" fill="#CBCBCB"/>
<path d="M312 592H296V608H312V592Z" fill="#C8C8C8"/>
<path d="M328 592H312V608H328V592Z" fill="#C9C8C8"/>
<path d="M344 592H328V608H344V592Z" fill="#C9C8C9"/>
<path d="M360 592H344V608H360V592Z" fill="#C9C8C8"/>
<path d="M376 592H360V608H376V592Z" fill="#C9C9C9"/>
<path d="M392 592H376V608H392V592Z" fill="#C9C9C9"/>
<path d="M408 592H392V608H408V592Z" fill="#C9C8C8"/>
<path d="M424 592H408V608H424V592Z" fill="#CAC9C9"/>
<path d="M440 592H424V608H440V592Z" fill="#4E4D4C"/>
<path d="M456 592H440V608H456V592Z" fill="#4A4949"/>
<path d="M472 592H456V608H472V592Z" fill="#2A2B29"/>
<path d="M488 592H472V608H488V592Z" fill="#4B4A4A"/>
<path d="M504 592H488V608H504V592Z" fill="#070606"/>
<path d="M520 592H504V608H520V592Z" fill="#B9B8B8"/>
<path d="M536 592H520V608H536V592Z" fill="#BAB9B9"/>
<path d="M552 592H536V608H552V592Z" fill="#CCCCCC"/>
<path d="M568 592H552V608H568V592Z" fill="#474545"/>
<path d="M584 592H568V608H584V592Z" fill="#C5C5C6"/>
<path d="M600 592H584V608H600V592Z" fill="#4E4F4E"/>
<path d="M616 592H600V608H616V592Z" fill="#424141"/>
<path d="M632 592H616V608H632V592Z" fill="#8E8D8D"/>
<path d="M648 592H632V608H648V592Z" fill="#050403"/>
<path d="M664 592H648V608H664V592Z" fill="#020201"/>
<path d="M680 592H664V608H680V592Z" fill="#010100"/>
<path d="M696 592H680V608H696V592Z" fill="black"/>
<path d="M712 592H696V608H712V592Z" fill="#010101"/>
<path d="M728 592H712V608H728V592Z" fill="#030300"/>
<path d="M744 592H728V608H744V592Z" fill="#030303"/>
<path d="M760 592H744V608H760V592Z" fill="#727270"/>
<path d="M792 592H776V608H792V592Z" fill="#727272"/>
<path d="M808 592H792V608H808V592Z" fill="black"/>
<path d="M824 592H808V608H824V592Z" fill="#545353"/>
<path d="M840 592H824V608H840V592Z" fill="black"/>
<path d="M856 592H840V608H856V592Z" fill="#010100"/>
<path d="M872 592H856V608H872V592Z" fill="black"/>
<path d="M888 592H872V608H888V592Z" fill="#010101"/>
<path d="M904 592H888V608H904V592Z" fill="black"/>
<path d="M920 592H904V608H920V592Z" fill="#404040"/>
<path d="M936 592H920V608H936V592Z" fill="#484748"/>
<path d="M952 592H936V608H952V592Z" fill="#010102"/>
<path d="M968 592H952V608H968V592Z" fill="#010101"/>
<path d="M264 608H248V624H264V608Z" fill="#3E3E3E"/>
<path d="M280 608H264V624H280V608Z" fill="#90908F"/>
<path d="M296 608H280V624H296V608Z" fill="#C8C8C8"/>
<path d="M312 608H296V624H312V608Z" fill="#C9C9C9"/>
<path d="M328 608H312V624H328V608Z" fill="#C9C8C8"/>
<path d="M344 608H328V624H344V608Z" fill="#CACACA"/>
<path d="M360 608H344V624H360V608Z" fill="#CAC9C9"/>
<path d="M376 608H360V624H376V608Z" fill="#C7C6C6"/>
<path d="M392 608H376V624H392V608Z" fill="#CBCACA"/>
<path d="M408 608H392V624H408V608Z" fill="#C7C6C6"/>
<path d="M424 608H408V624H424V608Z" fill="#C0BFBF"/>
<path d="M440 608H424V624H440V608Z" fill="#5B5B5C"/>
<path d="M456 608H440V624H456V608Z" fill="#4B4B4B"/>
<path d="M472 608H456V624H472V608Z" fill="black"/>
<path d="M488 608H472V624H488V608Z" fill="#4C4C4C"/>
<path d="M504 608H488V624H504V608Z" fill="#020201"/>
<path d="M520 608H504V624H520V608Z" fill="#C8C8C8"/>
<path d="M536 608H520V624H536V608Z" fill="#959495"/>
<path d="M568 608H552V624H568V608Z" fill="#525150"/>
<path d="M584 608H568V624H584V608Z" fill="#ACAFAF"/>
<path d="M600 608H584V624H600V608Z" fill="#444442"/>
<path d="M616 608H600V624H616V608Z" fill="#464446"/>
<path d="M632 608H616V624H632V608Z" fill="#454645"/>
<path d="M648 608H632V624H648V608Z" fill="#010100"/>
<path d="M664 608H648V624H664V608Z" fill="#010100"/>
<path d="M680 608H664V624H680V608Z" fill="#010100"/>
<path d="M696 608H680V624H696V608Z" fill="#000100"/>
<path d="M712 608H696V624H712V608Z" fill="black"/>
<path d="M728 608H712V624H728V608Z" fill="#050302"/>
<path d="M744 608H728V624H744V608Z" fill="black"/>
<path d="M760 608H744V624H760V608Z" fill="#6B6B6C"/>
<path d="M792 608H776V624H792V608Z" fill="#898888"/>
<path d="M808 608H792V624H808V608Z" fill="#4B4B4A"/>
<path d="M824 608H808V624H824V608Z" fill="#434342"/>
<path d="M840 608H824V624H840V608Z" fill="#0A0B0A"/>
<path d="M856 608H840V624H856V608Z" fill="#070807"/>
<path d="M872 608H856V624H872V608Z" fill="#141212"/>
<path d="M888 608H872V624H888V608Z" fill="black"/>
<path d="M904 608H888V624H904V608Z" fill="black"/>
<path d="M920 608H904V624H920V608Z" fill="#313230"/>
<path d="M936 608H920V624H936V608Z" fill="#393939"/>
<path d="M952 608H936V624H952V608Z" fill="black"/>
<path d="M968 608H952V624H968V608Z" fill="#424142"/>
<path d="M280 624H264V640H280V624Z" fill="#CACAC9"/>
<path d="M296 624H280V640H296V624Z" fill="#CAC8C8"/>
<path d="M312 624H296V640H312V624Z" fill="#CAC9C9"/>
<path d="M328 624H312V640H328V624Z" fill="#C9C8C8"/>
<path d="M392 624H376V640H392V624Z" fill="#C3C3C3"/>
<path d="M408 624H392V640H408V624Z" fill="#7D7D7C"/>
<path d="M456 624H440V640H456V624Z" fill="#808180"/>
<path d="M472 624H456V640H472V624Z" fill="#444342"/>
<path d="M488 624H472V640H488V624Z" fill="#050302"/>
<path d="M504 624H488V640H504V624Z" fill="#353633"/>
<path d="M584 624H568V640H584V624Z" fill="#020101"/>
<path d="M600 624H584V640H600V624Z" fill="#020100"/>
<path d="M616 624H600V640H616V624Z" fill="#010101"/>
<path d="M632 624H616V640H632V624Z" fill="#040303"/>
<path d="M648 624H632V640H648V624Z" fill="black"/>
<path d="M664 624H648V640H664V624Z" fill="#3C3C3C"/>
<path d="M680 624H664V640H680V624Z" fill="#010100"/>
<path d="M696 624H680V640H696V624Z" fill="#010100"/>
<path d="M712 624H696V640H712V624Z" fill="black"/>
<path d="M728 624H712V640H728V624Z" fill="#4D4D4C"/>
<path d="M744 624H728V640H744V624Z" fill="#4F4F4E"/>
<path d="M856 624H840V640H856V624Z" fill="#A9A9A8"/>
<path d="M872 624H856V640H872V624Z" fill="#CECECE"/>
<path d="M888 624H872V640H888V624Z" fill="#363736"/>
<path d="M904 624H888V640H904V624Z" fill="#818280"/>
<path d="M920 624H904V640H920V624Z" fill="#050402"/>
<path d="M936 624H920V640H936V624Z" fill="black"/>
<path d="M952 624H936V640H952V624Z" fill="#030202"/>
<path d="M968 624H952V640H968V624Z" fill="#010101"/>
<path d="M280 640H264V656H280V640Z" fill="#CAC9C9"/>
<path d="M296 640H280V656H296V640Z" fill="#CBCBCB"/>
<path d="M312 640H296V656H312V640Z" fill="#C7C6C6"/>
<path d="M392 640H376V656H392V640Z" fill="#CBC9CA"/>
<path d="M408 640H392V656H408V640Z" fill="#6B6B6A"/>
<path d="M456 640H440V656H456V640Z" fill="#878587"/>
<path d="M472 640H456V656H472V640Z" fill="#464445"/>
<path d="M488 640H472V656H488V640Z" fill="#3E3E3E"/>
<path d="M504 640H488V656H504V640Z" fill="#373736"/>
<path d="M584 640H568V656H584V640Z" fill="#403F3E"/>
<path d="M600 640H584V656H600V640Z" fill="#010100"/>
<path d="M616 640H600V656H616V640Z" fill="black"/>
<path d="M632 640H616V656H632V640Z" fill="black"/>
<path d="M648 640H632V656H648V640Z" fill="#020202"/>
<path d="M664 640H648V656H664V640Z" fill="#403F3E"/>
<path d="M680 640H664V656H680V640Z" fill="black"/>
<path d="M696 640H680V656H696V640Z" fill="black"/>
<path d="M712 640H696V656H712V640Z" fill="#010100"/>
<path d="M728 640H712V656H728V640Z" fill="#545453"/>
<path d="M744 640H728V656H744V640Z" fill="#585958"/>
<path d="M872 640H856V656H872V640Z" fill="#CDCCCD"/>
<path d="M888 640H872V656H888V640Z" fill="#818080"/>
<path d="M904 640H888V656H904V640Z" fill="#ADADAC"/>
<path d="M920 640H904V656H920V640Z" fill="#393939"/>
<path d="M936 640H920V656H936V640Z" fill="#333331"/>
<path d="M952 640H936V656H952V640Z" fill="black"/>
<path d="M968 640H952V656H968V640Z" fill="#020101"/>
<path d="M248 656H232V672H248V656Z" fill="#D1D1D1"/>
<path d="M264 656H248V672H264V656Z" fill="#C9C9C9"/>
<path d="M280 656H264V672H280V656Z" fill="#C8C7C7"/>
<path d="M296 656H280V672H296V656Z" fill="#CACACA"/>
<path d="M408 656H392V672H408V656Z" fill="#626263"/>
<path d="M424 656H408V672H424V656Z" fill="#373736"/>
<path d="M440 656H424V672H440V656Z" fill="#5C5B5B"/>
<path d="M456 656H440V672H456V656Z" fill="#414140"/>
<path d="M472 656H456V672H472V656Z" fill="#3E3D3C"/>
<path d="M488 656H472V672H488V656Z" fill="black"/>
<path d="M504 656H488V672H504V656Z" fill="#454544"/>
<path d="M520 656H504V672H520V656Z" fill="#8D8D8E"/>
<path d="M600 656H584V672H600V656Z" fill="#3C3B3B"/>
<path d="M616 656H600V672H616V656Z" fill="#010200"/>
<path d="M632 656H616V672H632V656Z" fill="#040303"/>
<path d="M648 656H632V672H648V656Z" fill="#C2C1C0"/>
<path d="M664 656H648V672H664V656Z" fill="black"/>
<path d="M680 656H664V672H680V656Z" fill="#131312"/>
<path d="M696 656H680V672H696V656Z" fill="#4C4B4B"/>
<path d="M712 656H696V672H712V656Z" fill="#020201"/>
<path d="M728 656H712V672H728V656Z" fill="#494948"/>
<path d="M744 656H728V672H744V656Z" fill="black"/>
<path d="M936 656H920V672H936V656Z" fill="#8B8A8B"/>
<path d="M952 656H936V672H952V656Z" fill="#C6C4C4"/>
<path d="M968 656H952V672H968V656Z" fill="#040403"/>
<path d="M248 672H232V688H248V672Z" fill="#D6D6D6"/>
<path d="M264 672H248V688H264V672Z" fill="#C9C7C7"/>
<path d="M280 672H264V688H280V672Z" fill="#C6C5C5"/>
<path d="M408 672H392V688H408V672Z" fill="#2F2F2E"/>
<path d="M424 672H408V688H424V672Z" fill="#3F3F3E"/>
<path d="M440 672H424V688H440V672Z" fill="#858383"/>
<path d="M456 672H440V688H456V672Z" fill="#838282"/>
<path d="M472 672H456V688H472V672Z" fill="#616060"/>
<path d="M488 672H472V688H488V672Z" fill="black"/>
<path d="M504 672H488V688H504V672Z" fill="#090909"/>
<path d="M520 672H504V688H520V672Z" fill="#484948"/>
<path d="M616 672H600V688H616V672Z" fill="black"/>
<path d="M680 672H664V688H680V672Z" fill="#403E41"/>
<path d="M712 672H696V688H712V672Z" fill="#131413"/>
<path d="M728 672H712V688H728V672Z" fill="#9A9999"/>
<path d="M744 672H728V688H744V672Z" fill="#0F0F0E"/>
<path d="M936 672H920V688H936V672Z" fill="#C0C0C0"/>
<path d="M968 672H952V688H968V672Z" fill="#4B4B4A"/>
<path d="M264 688H248V704H264V688Z" fill="#B6B6B5"/>
<path d="M392 688H376V704H392V688Z" fill="#474847"/>
<path d="M408 688H392V704H408V688Z" fill="#40403F"/>
<path d="M440 688H424V704H440V688Z" fill="#7C7D7C"/>
<path d="M488 688H472V704H488V688Z" fill="#040301"/>
<path d="M600 688H584V704H600V688Z" fill="#C5C5C4"/>
<path d="M616 688H600V704H616V688Z" fill="#030201"/>
<path d="M360 704H344V720H360V704Z" fill="#080707"/>
<path d="M376 704H360V720H376V704Z" fill="#010201"/>
<path d="M392 704H376V720H392V704Z" fill="#727271"/>
<path d="M408 704H392V720H408V704Z" fill="#767574"/>
<path d="M488 704H472V720H488V704Z" fill="#686567"/>
<path d="M616 704H600V720H616V704Z" fill="#464445"/>
<path d="M344 720H328V736H344V720Z" fill="#7D7D7D"/>
<path d="M360 720H344V736H360V720Z" fill="#333333"/>
<path d="M376 720H360V736H376V720Z" fill="#3F403F"/>
<path d="M392 720H376V736H392V720Z" fill="#1C1D1D"/>
<path d="M600 720H584V736H600V720Z" fill="#C4C4C4"/>
<path d="M616 720H600V736H616V720Z" fill="#040403"/>
<path d="M328 736H312V752H328V736Z" fill="#70706F"/>
<path d="M344 736H328V752H344V736Z" fill="#030301"/>
<path d="M360 736H344V752H360V736Z" fill="#5B5B5D"/>
<path d="M616 736H600V752H616V736Z" fill="#90908F"/>
<path d="M328 752H312V768H328V752Z" fill="#010102"/>
<path d="M344 752H328V768H344V752Z" fill="#030303"/>
<path d="M600 752H584V768H600V752Z" fill="#8B8B8B"/>
<path d="M616 752H600V768H616V752Z" fill="#E7E7E9"/>
<path d="M312 768H296V784H312V768Z" fill="#030201"/>
<path d="M328 768H312V784H328V768Z" fill="#414141"/>
<path d="M344 768H328V784H344V768Z" fill="#3C3C3B"/>
<path d="M600 768H584V784H600V768Z" fill="#8B8B8B"/>
<path d="M616 768H600V784H616V768Z" fill="#E6E6E7"/>
<path d="M296 784H280V800H296V784Z" fill="#030303"/>
<path d="M312 784H296V800H312V784Z" fill="#565755"/>
<path d="M328 784H312V800H328V784Z" fill="#8A8A89"/>
<path d="M344 784H328V800H344V784Z" fill="#7F7E7E"/>
<path d="M600 784H584V800H600V784Z" fill="#CBCACA"/>
<path d="M616 784H600V800H616V784Z" fill="#EAEAEB"/>
<path d="M296 800H280V816H296V800Z" fill="#060506"/>
<path d="M328 800H312V816H328V800Z" fill="#B3B1B1"/>
<path d="M344 800H328V816H344V800Z" fill="#858585"/>
<path d="M600 800H584V816H600V800Z" fill="#BCBBBB"/>
<path d="M616 800H600V816H616V800Z" fill="#E4E4E5"/>
<path d="M584 816H568V832H584V816Z" fill="#8E8D8D"/>
<path d="M600 816H584V832H600V816Z" fill="#4A4A4A"/>
<path d="M616 816H600V832H616V816Z" fill="#E8E8E9"/>
<path d="M584 832H568V848H584V832Z" fill="#B0AFAF"/>
<path d="M600 832H584V848H600V832Z" fill="#474646"/>
<path d="M616 832H600V848H616V832Z" fill="#E8E8E9"/>
<path d="M584 848H568V864H584V848Z" fill="#868586"/>
<path d="M600 848H584V864H600V848Z" fill="#484747"/>
<path d="M616 848H600V864H616V848Z" fill="#DFDFE0"/>
<path d="M584 864H568V880H584V864Z" fill="#CFCECF"/>
<path d="M600 864H584V880H600V864Z" fill="#444443"/>
<path d="M616 864H600V880H616V864Z" fill="#6E6D6E"/>
<path d="M584 880H568V896H584V880Z" fill="#888787"/>
<path d="M600 880H584V896H600V880Z" fill="#4A4A4A"/>
<path d="M616 880H600V896H616V880Z" fill="#CBCBCE"/>
<path d="M584 896H568V912H584V896Z" fill="#C4C4C4"/>
<path d="M600 896H584V912H600V896Z" fill="#434242"/>
<path d="M616 896H600V912H616V896Z" fill="#CFCED1"/>
<path d="M584 912H568V928H584V912Z" fill="#908F8E"/>
<path d="M600 912H584V928H600V912Z" fill="#757575"/>
<path d="M616 912H600V928H616V912Z" fill="#C6C6C8"/>
<path d="M584 928H568V944H584V928Z" fill="#C8C7C7"/>
<path d="M600 928H584V944H600V928Z" fill="#C9C8C8"/>
<path d="M616 928H600V944H616V928Z" fill="#CCCCCE"/>
<path d="M584 944H568V960H584V944Z" fill="#898988"/>
<path d="M600 944H584V960H600V944Z" fill="#C9C9C8"/>
<path d="M616 944H600V960H616V944Z" fill="#CBCBCC"/>
<path d="M584 960H568V976H584V960Z" fill="#6D6C6B"/>
<path d="M600 960H584V976H600V960Z" fill="#696967"/>
<path d="M616 960H600V976H616V960Z" fill="#CAC9CB"/>
<path d="M568 976H552V992H568V976Z" fill="#848484"/>
<path d="M584 976H568V992H584V976Z" fill="#010101"/>
<path d="M600 976H584V992H600V976Z" fill="#020101"/>
<path d="M616 976H600V992H616V976Z" fill="#CECED0"/>
<path d="M568 992H552V1008H568V992Z" fill="#D0D0D0"/>
<path d="M584 992H568V1008H584V992Z" fill="#010000"/>
<path d="M600 992H584V1008H600V992Z" fill="black"/>
<path d="M616 992H600V1008H616V992Z" fill="#D0D0D2"/>
<path d="M568 1008H552V1024H568V1008Z" fill="#C6C6C5"/>
<path d="M584 1008H568V1024H584V1008Z" fill="#010101"/>
<path d="M600 1008H584V1024H600V1008Z" fill="black"/>
<path d="M616 1008H600V1024H616V1008Z" fill="#CBCBCE"/>
<path d="M568 1024H552V1040H568V1024Z" fill="#C7C6C6"/>
<path d="M584 1024H568V1040H584V1024Z" fill="#131414"/>
<path d="M600 1024H584V1040H600V1024Z" fill="black"/>
<path d="M616 1024H600V1040H616V1024Z" fill="#D1D1D3"/>
<path d="M552 1040H536V1056H552V1040Z" fill="#797979"/>
<path d="M568 1040H552V1056H568V1040Z" fill="#CAC9C9"/>
<path d="M584 1040H568V1056H584V1040Z" fill="#060606"/>
<path d="M600 1040H584V1056H600V1040Z" fill="#010101"/>
<path d="M616 1040H600V1056H616V1040Z" fill="#D1D1D3"/>
<path d="M552 1056H536V1072H552V1056Z" fill="#606060"/>
<path d="M568 1056H552V1072H568V1056Z" fill="#5D5B5B"/>
<path d="M584 1056H568V1072H584V1056Z" fill="#595858"/>
<path d="M600 1056H584V1072H600V1056Z" fill="black"/>
<path d="M616 1056H600V1072H616V1056Z" fill="#D4D5D7"/>
</g>
<defs>
<clipPath id="clip0_5_8039">
<rect width="736" height="944" fill="white" transform="translate(232 128)"/>
</clipPath>
</defs>
</svg>
